HIERARCHY
ROOT Hips
{
	OFFSET 0.000000 0.000000 0.000000
	CHANNELS 6 Xposition Yposition Zposition Zrotation Yrotation Xrotation 
	JOINT LHipJoint
	{
		OFFSET 0.000000 0.000000 0.000000
		CHANNELS 3 Zrotation Yrotation Xrotation
		JOINT LeftUpLeg
		{
			OFFSET 1.363060 -1.794630 0.839290
			CHANNELS 3 Zrotation Yrotation Xrotation
			JOINT LeftLeg
			{
				OFFSET 2.448110 -6.726130 0.000000
				CHANNELS 3 Zrotation Yrotation Xrotation
				JOINT LeftFoot
				{
					OFFSET 2.562200 -7.039590 0.000000
					CHANNELS 3 Zrotation Yrotation Xrotation
					JOINT LeftToeBase
					{
						OFFSET 0.157640 -0.433110 2.322550
						CHANNELS 3 Zrotation Yrotation Xrotation
						End Site
						{
							OFFSET 0.000000 0.000000 0.000000
						}
					}
				}
			}
		}
	}
	JOINT RHipJoint
	{
		OFFSET 0.000000 0.000000 0.000000
		CHANNELS 3 Zrotation Yrotation Xrotation
		JOINT RightUpLeg
		{
			OFFSET -1.305520 -1.794630 0.839290
			CHANNELS 3 Zrotation Yrotation Xrotation
			JOINT RightLeg
			{
				OFFSET -2.542530 -6.985550 0.000000
				CHANNELS 3 Zrotation Yrotation Xrotation
				JOINT RightFoot
				{
					OFFSET -2.568260 -7.056230 0.000000
					CHANNELS 3 Zrotation Yrotation Xrotation
					JOINT RightToeBase
					{
						OFFSET -0.164730 -0.452590 2.363150
						CHANNELS 3 Zrotation Yrotation Xrotation
						End Site
						{
							OFFSET 0.000000 0.000000 0.000000
						}
					}
				}
			}
		}
	}
	JOINT LowerBack
	{
		OFFSET 0.000000 0.000000 0.000000
		CHANNELS 3 Zrotation Yrotation Xrotation
		JOINT Spine
		{
			OFFSET 0.028270 2.035590 -0.193380
			CHANNELS 3 Zrotation Yrotation Xrotation
			JOINT Spine1
			{
				OFFSET 0.056720 2.048850 -0.042750
				CHANNELS 3 Zrotation Yrotation Xrotation
				JOINT Neck
				{
					OFFSET 0.000000 0.000000 0.000000
					CHANNELS 3 Zrotation Yrotation Xrotation
					JOINT Neck1
					{
						OFFSET -0.054170 1.746240 0.172020
						CHANNELS 3 Zrotation Yrotation Xrotation
						JOINT Head
						{
							OFFSET 0.104070 1.761360 -0.123970
							CHANNELS 3 Zrotation Yrotation Xrotation
							End Site
							{
								OFFSET 0.000000 0.000000 0.000000
							}
						}
					}
				}
				JOINT LeftShoulder
				{
					OFFSET 0.000000 0.000000 0.000000
					CHANNELS 3 Zrotation Yrotation Xrotation
					JOINT LeftArm
					{
						OFFSET 3.362410 1.200890 -0.311210
						CHANNELS 3 Zrotation Yrotation Xrotation
						JOINT LeftForeArm
						{
							OFFSET 4.983000 -0.000000 -0.000000
							CHANNELS 3 Zrotation Yrotation Xrotation
							JOINT LeftHand
							{
								OFFSET 3.483560 -0.000000 -0.000000
								CHANNELS 3 Zrotation Yrotation Xrotation
								JOINT LeftFingerBase
								{
									OFFSET 0.000000 0.000000 0.000000
									CHANNELS 3 Zrotation Yrotation Xrotation
									JOINT LeftHandIndex1
									{
										OFFSET 0.715260 -0.000000 -0.000000
										CHANNELS 3 Zrotation Yrotation Xrotation
										End Site
										{
											OFFSET 0.000000 0.000000 0.000000
										}
									}
								}
								JOINT LThumb
								{
									OFFSET 0.000000 0.000000 0.000000
									CHANNELS 3 Zrotation Yrotation Xrotation
									End Site
									{
										OFFSET 0.000000 0.000000 0.000000
									}
								}
							}
						}
					}
				}
				JOINT RightShoulder
				{
					OFFSET 0.000000 0.000000 0.000000
					CHANNELS 3 Zrotation Yrotation Xrotation
					JOINT RightArm
					{
						OFFSET -3.136600 1.374050 -0.404650
						CHANNELS 3 Zrotation Yrotation Xrotation
						JOINT RightForeArm
						{
							OFFSET -5.241900 -0.000000 -0.000000
							CHANNELS 3 Zrotation Yrotation Xrotation
							JOINT RightHand
							{
								OFFSET -3.444170 -0.000000 -0.000000
								CHANNELS 3 Zrotation Yrotation Xrotation
								JOINT RightFingerBase
								{
									OFFSET 0.000000 0.000000 0.000000
									CHANNELS 3 Zrotation Yrotation Xrotation
									JOINT RightHandIndex1
									{
										OFFSET -0.622530 -0.000000 -0.000000
										CHANNELS 3 Zrotation Yrotation Xrotation
										End Site
										{
											OFFSET 0.000000 0.000000 0.000000
										}
									}
								}
								JOINT RThumb
								{
									OFFSET 0.000000 0.000000 0.000000
									CHANNELS 3 Zrotation Yrotation Xrotation
									End Site
									{
										OFFSET 0.000000 0.000000 0.000000
									}
								}
							}
						}
					}
				}
			}
		}
	}
}
MOTION
Frames: 6
Frame Time: 0.008333
5.157012 17.350582 1.164548 -176.482491 -61.693970 -174.401394 -12.467366 3.702854 -1.469373 -7.732016 34.610359 -12.791710 -3.387328 -1.022266 -2.700596 1.131480 8.949937 -0.552987 1.032200 -0.000000 -27.359700 8.272519 -1.703075 5.744175 4.471797 9.828996 -12.149282 3.589938 1.889197 -2.005826 1.437728 7.645845 5.153613 0.954300 -0.000000 -37.962900 5.139366 -5.687080 -6.267213 0.926684 -6.196017 -4.738394 -5.600057 -6.348306 -3.284476 8.475007 -3.289451 1.920775 -1.604874 -0.260951 2.691424 0.000000 0.000000 0.000000 6.501088 -11.083961 5.181818 -46.486860 -34.873475 -12.489495 -3.187381 2.182068 -0.028721 1.630883 8.938593 0.135906 -0.149037 0.198540 0.000000 0.000000 0.000000 0.000000 0.000000 0.000000 0.000000 2.301504 -4.109738 -9.262389 88.771719 65.767945 16.242973 -176.270350 68.108965 179.736859 -10.766124 18.998384 -1.892867 -0.188654 -1.127207 0.000000 0.000000 0.000000 0.000000 0.000000 0.000000 0.000000 
5.161972 17.346345 1.163858 -176.787659 -61.541238 -174.220221 -12.449661 3.673793 -1.544898 -7.751294 34.588234 -12.689243 -3.377500 -1.005823 -2.357183 1.164881 9.192396 -0.772947 1.022600 0.000000 -27.315800 8.288861 -1.700093 5.719351 4.314024 9.933498 -12.091943 3.557057 1.854435 -1.874201 1.433702 7.731464 5.004838 0.966400 0.000000 -37.959900 5.054030 -5.547467 -6.139900 0.939579 -6.054502 -4.702212 -5.502777 -6.214179 -3.206626 8.163559 -3.284763 1.707969 -1.581203 -0.255316 2.631319 0.000000 0.000000 0.000000 5.146776 -10.181446 5.191365 -47.691975 -34.344106 -11.532894 -3.191190 -1.861217 -0.024408 0.767691 9.556015 0.073650 -0.132517 0.205145 0.000000 0.000000 0.000000 0.000000 0.000000 0.000000 0.000000 1.700412 -3.930374 -9.095441 86.943995 65.663536 14.341147 -176.173836 67.300846 179.735622 -10.917527 18.819835 -1.904112 -0.182291 -1.131641 0.000000 0.000000 0.000000 0.000000 0.000000 0.000000 0.000000 
5.168930 17.342509 1.161686 -177.092918 -61.421622 -174.013555 -12.426526 3.639166 -1.614733 -7.797949 34.550217 -12.644822 -3.369819 -0.990413 -1.996356 1.197159 9.423097 -0.985150 1.012000 -0.000000 -27.263800 8.307013 -1.699974 5.697489 4.160148 10.016402 -12.088889 3.524094 1.816970 -1.719449 1.430833 7.828087 4.855621 0.980800 0.000000 -37.960300 4.949126 -5.386642 -6.022490 0.944611 -5.890647 -4.670521 -5.417899 -6.058262 -3.145892 7.838543 -3.263652 1.520150 -1.555191 -0.249935 2.578284 0.000000 0.000000 0.000000 3.920944 -9.320480 5.191455 -48.575039 -33.788133 -9.343078 -3.266640 -6.606846 -0.018218 -0.780585 10.528786 -0.059689 -0.118025 0.203810 0.000000 0.000000 0.000000 0.000000 0.000000 0.000000 0.000000 1.079662 -3.725990 -8.939746 85.185386 65.476385 12.394504 -176.061003 66.438322 179.732523 -11.159696 18.751273 -1.942654 -0.174108 -1.139088 0.000000 0.000000 0.000000 0.000000 0.000000 0.000000 0.000000 
5.177189 17.339413 1.158005 -177.388753 -61.345251 -173.783852 -12.399559 3.600698 -1.673655 -7.873816 34.496903 -12.661686 -3.364685 -0.977658 -1.639519 1.226556 9.631122 -1.176376 1.001700 0.000000 -27.202600 8.325522 -1.704609 5.682472 4.013980 10.075178 -12.142113 3.492157 1.778654 -1.552458 1.428915 7.927836 4.714983 0.996400 -0.000000 -37.959800 4.833448 -5.206144 -5.926041 0.941028 -5.707284 -4.643607 -5.352497 -5.882295 -3.096346 7.507459 -3.241028 1.361685 -1.527514 -0.244967 2.533649 0.000000 0.000000 0.000000 2.857156 -8.491444 5.176796 -49.116424 -33.409827 -6.798858 -3.330504 -11.507150 -0.011252 -2.553622 11.506410 -0.242136 -0.104412 0.198355 0.000000 0.000000 0.000000 0.000000 0.000000 0.000000 0.000000 0.457931 -3.522985 -8.806482 83.594945 65.214418 10.506767 -175.934647 65.557706 179.727766 -11.480362 18.780999 -2.005292 -0.164569 -1.148854 0.000000 0.000000 0.000000 0.000000 0.000000 0.000000 0.000000 
5.186180 17.337286 1.152876 -177.667333 -61.316426 -173.535522 -12.369801 3.559573 -1.718661 -7.977670 34.426017 -12.736817 -3.361686 -0.968764 -1.307657 1.252200 9.811919 -1.336293 0.993800 -0.000001 -27.131100 8.343609 -1.714241 5.675954 3.879308 10.110488 -12.248452 3.462229 1.741333 -1.386609 1.427710 8.023285 4.591717 1.012300 0.000001 -37.951000 4.710964 -5.010763 -5.856355 0.929175 -5.509600 -4.621370 -5.306212 -5.690546 -3.054329 7.179622 -3.228480 1.233854 -1.500009 -0.240571 2.497836 0.000000 0.000000 0.000000 2.012675 -7.670790 5.132223 -49.443249 -33.341073 -4.408935 -3.330567 -16.212772 -0.004452 -4.195134 12.314700 -0.435512 -0.090467 0.191496 0.000000 0.000000 0.000000 0.000000 0.000000 0.000000 0.000000 -0.142016 -3.340798 -8.702702 82.241648 64.899758 8.762567 -175.799252 64.692519 179.721751 -11.858021 18.887466 -2.086924 -0.154263 -1.160094 0.000000 0.000000 0.000000 0.000000 0.000000 0.000000 0.000000 
5.195148 17.336289 1.146433 -177.920004 -61.335448 -173.273080 -12.338675 3.517372 -1.747684 -8.106073 34.335699 -12.862832 -3.360254 -0.964593 -1.018291 1.273789 9.964773 -1.458273 0.989900 0.000000 -27.047600 8.360391 -1.728887 5.678883 3.758528 10.124700 -12.399833 3.435161 1.706938 -1.236416 1.426932 8.107162 4.494057 1.027600 0.000000 -37.932600 4.587676 -4.806596 -5.816833 0.910807 -5.304014 -4.604539 -5.275619 -5.488863 -3.020096 6.858995 -3.233062 1.138643 -1.475943 -0.236980 2.471481 0.000000 0.000000 0.000000 1.423003 -6.847322 5.042398 -49.695025 -33.587386 -2.316763 -3.244762 -20.636590 0.001362 -5.446897 12.960618 -0.601023 -0.076089 0.184929 0.000000 0.000000 0.000000 0.000000 0.000000 0.000000 0.000000 -0.699800 -3.189759 -8.629888 81.174273 64.563371 7.235832 -175.662210 63.880384 179.715034 -12.260484 19.046219 -2.179751 -0.143941 -1.171962 0.000000 0.000000 0.000000 0.000000 0.000000 0.000000 0.000000 
